<?xml version="1.0" encoding="UTF-8"?>
<svg id="Layer_7" data-name="Layer 7" xmlns="http://www.w3.org/2000/svg" viewBox="0 0 220 220">
  <defs>
    <style>
      .cls-1 {
        fill: #131516;
      }
    </style>
  </defs>
  <g>
    <path class="cls-1" d="M122.12,127.21h42.38c26.22,0,47.5-21.69,47.5-48.47s-21.26-48.47-47.5-48.47-47.5,21.69-47.5,48.47v43.25c0,2.86,2.29,5.22,5.12,5.22"/>
    <path class="cls-1" d="M59.5,193.74c26.22,0,47.5-21.69,47.5-48.47v-43.27c0-2.86-2.26-5.2-5.09-5.2h-42.41c-26.22,0-47.5,21.69-47.5,48.47s21.26,48.47,47.5,48.47"/>
    <path class="cls-1" d="M121.89,137.17h43.07c2.72,0,4.89,2.24,4.89,4.99v43.13c0,2.78-2.19,4.99-4.89,4.99h-43.07c-2.72,0-4.89-2.24-4.89-4.99v-43.13c0-2.78,2.19-4.99,4.89-4.99"/>
  </g>
  <circle class="cls-1" cx="79.7" cy="59.38" r="29.12"/>
</svg>